<svg version="1.1" viewBox="0 0 16 16" xmlns="http://www.w3.org/2000/svg">
 <g id="Icons new Arranged Names" transform="matrix(.5 0 0 .5 0 -.25)" style="fill-rule:evenodd;fill:#bebebe">
  <g id="52 Cloud Sync" style="fill:#bebebe">
   <path d="m16 26c2.419 0 4.4367-1.7178 4.9-4h2.0291c-0.48523 3.3923-3.4026 6-6.9291 6-2.4445 0-4.5963-1.253-5.8482-3.1518l-1.1518 1.1518v-4h4l-1.3919 1.3919c0.8481 1.5539 2.4969 2.6081 4.3919 2.6081zm4.9-6h-1.9l1.3919-1.3918c-0.84807-1.5539-2.4969-2.6082-4.3919-2.6082-2.419 0-4.4367 1.7178-4.9 4h-2.0291c0.48523-3.3923 3.4026-6 6.9291-6 2.4445 0 4.5963 1.253 5.8483 3.1518l1.1517-1.1517v3.9999h-0.07089zm-20.9-1c0-2.2172 1.2075-4.1584 3.0021-5.197 0.10479-4.8796 4.0932-8.803 8.9979-8.803 3.2335 0 6.0687 1.7052 7.6555 4.2654 0.58474-0.17273 1.2038-0.26543 1.8445-0.26543 2.7846 0 5.1602 1.7509 6.0858 4.2119 2.5439 0.69556 4.4142 3.0235 4.4142 5.7881 0 3.307-2.6864 6-6.0002 6h-1.9353c0.31234-0.6285 0.55337-1.2987 0.7125-2h1.2262c2.2074 0 3.9968-1.7954 3.9968-4 0-2.2091-1.7941-4-3.9968-4h-0.03062c-0.24874-2.25-2.1563-4-4.4725-4-1.0572 0-2.0293 0.3646-2.7974 0.97492-0.86854-2.8786-3.5408-4.9749-6.7026-4.9749-3.866 0-7 3.134-7 7 0 0.37579 0.029612 0.74467 0.086631 1.1044-1.7688 0.41316-3.0866 2.0037-3.0866 3.8956 0 2.2091 1.7941 4 3.9968 4h1.0032v2h-0.99982c-3.3132 0-6.0002-2.6863-6.0002-6z" style="fill:#bebebe"/>
  </g>
 </g>
</svg>
